<svg width="50" height="50" viewBox="0 0 50 50" fill="none" xmlns="http://www.w3.org/2000/svg">
<rect width="50" height="50" rx="2.5463" fill="#808080"/>
<path d="M42.118 14.4483C40.8185 15.0246 39.4399 15.4027 38.0282 15.57C39.5152 14.6803 40.628 13.2802 41.1592 11.6307C39.7614 12.461 38.2317 13.0454 36.6364 13.3587C35.6591 12.3179 34.3916 11.5946 32.9983 11.2829C31.6049 10.9712 30.1501 11.0854 28.8224 11.6106C27.4948 12.1359 26.3556 13.0479 25.5526 14.2285C24.7497 15.4091 24.32 16.8038 24.3194 18.2316C24.3188 18.7778 24.3803 19.3224 24.5028 19.8547C21.6716 19.7128 18.9019 18.9771 16.3734 17.6955C13.8449 16.4138 11.6142 14.6147 9.82611 12.415C8.91561 13.9826 8.63663 15.8383 9.04596 17.6043C9.45529 19.3704 10.5222 20.9141 12.0295 21.9213C10.8986 21.8863 9.79251 21.581 8.80371 21.0311V21.1211C8.80393 22.7651 9.3728 24.3585 10.4138 25.631C11.4549 26.9035 12.904 27.7768 14.5155 28.1027C13.9041 28.2694 13.2731 28.3534 12.6394 28.3523C12.1896 28.3523 11.7409 28.3103 11.2989 28.2269C11.754 29.6414 12.6397 30.8784 13.8321 31.7649C15.0246 32.6514 16.4642 33.1433 17.9498 33.1716C14.9638 35.5097 11.1731 36.5696 7.40741 36.1192C10.6629 38.2121 14.4523 39.3233 18.3226 39.3199C20.9882 39.3382 23.6309 38.8267 26.0972 37.815C28.5635 36.8034 30.8042 35.3118 32.6891 33.4268C34.574 31.5419 36.0656 29.3012 37.0773 26.8349C38.0889 24.3687 38.6005 21.726 38.5821 19.0603C38.5821 18.7514 38.5749 18.4444 38.5604 18.1393C39.956 17.1299 41.1606 15.8801 42.118 14.4483Z" fill="#F5F5F5"/>
</svg>
